<svg xmlns="http://www.w3.org/2000/svg" viewBox="0 0 600 500" fill="none">
  <!-- Background glow -->
  <circle cx="300" cy="250" r="200" fill="url(#dng)" opacity="0.3"/>
  <!-- Left: Legacy code block -->
  <g>
    <rect x="50" y="120" width="200" height="260" rx="10" fill="rgba(140,114,203,0.06)" stroke="rgba(140,114,203,0.3)" stroke-width="1.5"/>
    <rect x="50" y="120" width="200" height="32" rx="10" fill="rgba(140,114,203,0.08)"/>
    <circle cx="72" cy="136" r="5" fill="rgba(230,42,118,0.3)"/>
    <circle cx="88" cy="136" r="5" fill="rgba(140,114,203,0.3)"/>
    <circle cx="104" cy="136" r="5" fill="rgba(140,114,203,0.2)"/>
    <!-- Code lines -->
    <g stroke-width="1">
      <line x1="70" y1="170" x2="180" y2="170" stroke="rgba(140,114,203,0.25)"/>
      <line x1="70" y1="185" x2="200" y2="185" stroke="rgba(140,114,203,0.2)"/>
      <line x1="85" y1="200" x2="190" y2="200" stroke="rgba(140,114,203,0.18)"/>
      <line x1="85" y1="215" x2="170" y2="215" stroke="rgba(140,114,203,0.18)"/>
      <line x1="85" y1="230" x2="210" y2="230" stroke="rgba(140,114,203,0.2)"/>
      <line x1="85" y1="245" x2="160" y2="245" stroke="rgba(140,114,203,0.15)"/>
      <line x1="70" y1="260" x2="140" y2="260" stroke="rgba(140,114,203,0.2)"/>
      <line x1="70" y1="275" x2="195" y2="275" stroke="rgba(140,114,203,0.18)"/>
      <line x1="85" y1="290" x2="180" y2="290" stroke="rgba(140,114,203,0.15)"/>
      <line x1="85" y1="305" x2="150" y2="305" stroke="rgba(140,114,203,0.12)"/>
      <line x1="70" y1="320" x2="130" y2="320" stroke="rgba(140,114,203,0.15)"/>
      <line x1="70" y1="335" x2="180" y2="335" stroke="rgba(140,114,203,0.12)"/>
      <line x1="70" y1="350" x2="120" y2="350" stroke="rgba(140,114,203,0.1)"/>
    </g>
    <text x="150" y="400" text-anchor="middle" fill="rgba(140,114,203,0.35)" font-family="monospace" font-size="10">LEGACY</text>
  </g>
  <!-- Transformation arrows -->
  <g>
    <path d="M270 250 L330 250" stroke="rgba(230,42,118,0.5)" stroke-width="2"/>
    <path d="M322 242 L336 250 L322 258" fill="rgba(230,42,118,0.5)"/>
    <path d="M280 230 Q300 210 320 230" stroke="rgba(230,42,118,0.25)" stroke-width="1.5" fill="none"/>
    <path d="M280 270 Q300 290 320 270" stroke="rgba(230,42,118,0.25)" stroke-width="1.5" fill="none"/>
  </g>
  <!-- Right: Modern code block -->
  <g>
    <rect x="350" y="120" width="200" height="260" rx="10" fill="rgba(140,114,203,0.08)" stroke="rgba(140,114,203,0.5)" stroke-width="1.5"/>
    <rect x="350" y="120" width="200" height="32" rx="10" fill="rgba(140,114,203,0.12)"/>
    <circle cx="372" cy="136" r="5" fill="rgba(140,114,203,0.5)"/>
    <circle cx="388" cy="136" r="5" fill="rgba(140,114,203,0.4)"/>
    <circle cx="404" cy="136" r="5" fill="rgba(140,114,203,0.3)"/>
    <!-- Clean code lines - structured -->
    <g stroke-width="1.5">
      <line x1="370" y1="170" x2="480" y2="170" stroke="rgba(140,114,203,0.35)"/>
      <line x1="370" y1="188" x2="500" y2="188" stroke="rgba(140,114,203,0.3)"/>
      <line x1="385" y1="206" x2="490" y2="206" stroke="rgba(140,114,203,0.28)"/>
      <line x1="385" y1="224" x2="460" y2="224" stroke="rgba(140,114,203,0.28)"/>
      <line x1="370" y1="242" x2="440" y2="242" stroke="rgba(140,114,203,0.3)"/>
      <line x1="370" y1="264" x2="510" y2="264" stroke="rgba(140,114,203,0.3)"/>
      <line x1="385" y1="282" x2="470" y2="282" stroke="rgba(140,114,203,0.25)"/>
      <line x1="385" y1="300" x2="500" y2="300" stroke="rgba(140,114,203,0.25)"/>
      <line x1="370" y1="318" x2="450" y2="318" stroke="rgba(140,114,203,0.3)"/>
      <line x1="370" y1="336" x2="420" y2="336" stroke="rgba(140,114,203,0.25)"/>
    </g>
    <text x="450" y="400" text-anchor="middle" fill="rgba(140,114,203,0.5)" font-family="monospace" font-size="10">MODERN</text>
  </g>
  <!-- Test checkmarks -->
  <g fill="rgba(140,114,203,0.3)">
    <text x="520" y="172" font-family="monospace" font-size="12">✓</text>
    <text x="520" y="200" font-family="monospace" font-size="12">✓</text>
    <text x="520" y="228" font-family="monospace" font-size="12">✓</text>
  </g>
  <!-- Decorative -->
  <circle cx="300" cy="460" r="3" fill="rgba(230,42,118,0.25)"/>
  <circle cx="40" cy="100" r="2" fill="rgba(140,114,203,0.2)"/>
  <circle cx="560" cy="100" r="2" fill="rgba(140,114,203,0.2)"/>
  <defs>
    <radialGradient id="dng">
      <stop offset="0%" stop-color="rgba(140,114,203,0.1)"/>
      <stop offset="100%" stop-color="transparent"/>
    </radialGradient>
  </defs>
</svg>
